# xmcd CD database file
#
# Track frame offsets:
#	150
#	20229
#	39022
#	67534
#	98956
#	128161
#	137136
#	158643
#	184678
#	213743
#	245619
#	260890
#	290068
#	309701
#
# Disc length: 4431 seconds
#
# Revision: 0
# Processed by: cddbd v1.5.2PL0 Copyright (c) Steve Scherf et al.
# Submitted via: CDex 1.70beta2
#
DISCID=d0114d0e
DTITLE=Rolf Kühn - Timeless Circle
DYEAR=2014
DGENRE=Jazz
TTITLE0=Into the Pocket
TTITLE1=Total Reflections
TTITLE2=Second Visit
TTITLE3=I Got It Bad and That Ain't Good
TTITLE4=Runferyerlife
TTITLE5=Love
TTITLE6=Saturday Blues
TTITLE7=Roulette
TTITLE8=Freaky Eyes
TTITLE9=Fractions
TTITLE10=Leeaison
TTITLE11=Just Friends
TTITLE12=The Vertical Circle
TTITLE13=When You Wish Upon a Star
EXTD=YEAR: 2014
EXTT0=
EXTT1=
EXTT2=
EXTT3=
EXTT4=
EXTT5=
EXTT6=
EXTT7=
EXTT8=
EXTT9=
EXTT10=
EXTT11=
EXTT12=
EXTT13=
PLAYORDER=
